# AST/ASF file generated using VICON BodyLanguage
# -----------------------------------------------
:version 1.10
:name VICON
:units
  mass 1.0
  length 0.45
  angle deg
:documentation
   .ast/.asf automatically generated from VICON data using
   VICON BodyBuilder and BodyLanguage model FoxedUp or BRILLIANT.MOD
:root
   order TX TY TZ RX RY RZ
   axis XYZ
   position 0 0 0  
   orientation 0 0 0 
:bonedata
  begin
     id 1 
     name lhipjoint
     direction 0.63403 -0.759788 0.143974 
     length 2.51904 
     axis 0 0 0  XYZ
  end
  begin
     id 2 
     name lfemur
     direction 0.34202 -0.939693 0  
     length 7.42313  
     axis 0 0 20  XYZ
    dof rx ry rz
    limits (-160.0 20.0)
           (-70.0 70.0)
           (-60.0 70.0)
  end
  begin
     id 3 
     name ltibia
     direction 0.34202 -0.939693 0   
     length 8.10141   
     axis 0 0 20   XYZ
    dof rx
    limits (-10.0 170.0)
  end
  begin
     id 4 
     name lfoot
     direction 0.0927455 -0.254816 0.962532   
     length 2.14078   
     axis -90 7.62852e-016 20   XYZ
    dof rx rz
    limits (-45.0 90.0)
           (-70.0 20.0)
  end
  begin
     id 5 
     name ltoes
     direction 1.53556e-011 -4.21949e-011 1   
     length 1.07182   
     axis -90 7.62852e-016 20   XYZ
    dof rx
    limits (-90.0 20.0)
  end
  begin
     id 6 
     name rhipjoint
     direction -0.659892 -0.738223 0.139888   
     length 2.59263  
     axis 0 0 0  XYZ 
  end
  begin
     id 7 
     name rfemur
     direction -0.34202 -0.939693 0   
     length 7.58575   
     axis 0 0 -20   XYZ
    dof rx ry rz
    limits (-160.0 20.0)
           (-70.0 70.0)
           (-70.0 60.0)
  end
  begin
     id 8 
     name rtibia
     direction -0.34202 -0.939693 0   
     length 8.19358   
     axis 0 0 -20   XYZ
    dof rx
    limits (-10.0 170.0)
 end
 begin
     id 9 
     name rfoot
     direction -0.0856543 -0.235333 0.968133   
     length 2.13415  
     axis -90 -7.62852e-016 -20   XYZ
    dof rx rz
    limits (-45.0 90.0)
           (-20.0 70.0)
  end
  begin
     id 10 
     name rtoes
     direction -1.53551e-011 -4.21811e-011 1   
     length 1.07055   
     axis -90 -7.62852e-016 -20   XYZ
    dof rx
    limits (-90.0 20.0)
  end
  begin
     id 11 
     name lowerback
     direction 0.025219 0.998394 -0.0507326   
     length 1.91844   
     axis 0 0 0   XYZ
    dof rx ry rz
    limits (-20.0 45.0)
           (-30.0 30.0)
           (-30.0 30.0)
  end
  begin
     id 12 
     name upperback
     direction 0.0213103 0.99967 -0.0143101   
     length 1.92246   
     axis 0 0 0   XYZ
    dof rx ry rz
    limits (-20.0 45.0)
           (-30.0 30.0)
           (-30.0 30.0)
  end
  begin
     id 13 
     name thorax
     direction 0.00920974 0.99991 0.00971518   
     length 1.92239   
     axis 0 0 0   XYZ
    dof rx ry rz
    limits (-20.0 45.0)
           (-30.0 30.0)
           (-30.0 30.0)
  end
  begin
     id 14 
     name lowerneck
     direction 0.0598257 0.997249 0.0437612   
     length 3.13679   
     axis 0 0 0   XYZ
    dof rx ry rz
    limits (-20.0 45.0)
           (-30.0 30.0)
           (-30.0 30.0)
  end
  begin
     id 15 
     name upperneck
     direction -0.035342 0.999338 0.00863891   
     length 3.16283   
     axis 0 0 0   XYZ
    dof rx ry rz
    limits (-20.0 45.0)
           (-30.0 30.0)
           (-30.0 30.0)
  end
  begin
     id 16
     name head
     direction 0.37144 0.811566 0.450991  
     length 1.2838  
     axis 0 0 0   XYZ
    dof rx ry rz
    limits (-20.0 45.0)
           (-30.0 30.0)
           (-30.0 30.0)
  end
  begin
     id 17 
     name lclavicle
     direction 0.961094 0.274654 -0.0293862  
     length 3.63466  
     axis 0 0 0   XYZ
    dof ry rz
    limits (-20.0 10.0)
           (0.0 20.0)
  end
  begin
     id 18 
     name lhumerus
     direction 1 -4.48963e-011 1.10303e-027   
     length 5.12842   
     axis 180 -30 -90   XYZ
    dof rx ry rz
    limits (-60.0 90.0)
           (-90.0 90.0)
           (-90.0 90.0)
  end
  begin
     id 19
     name lradius
     direction 1 -4.48968e-011 4.13199e-027   
     length 3.47396   
     axis 180 -30 -90   XYZ
    dof rx
    limits (-10.0 170.0)
  end
  begin
     id 20
     name lwrist
     direction 1 -4.48948e-011 9.12708e-027   
     length 1.73698   
     axis -6.84618e-015 90 90   XYZ
    dof ry
    limits (-180.0 0.0)
 end
  begin
     id 21 
     name lhand
     direction 1 -4.49057e-011 1.82749e-026   
     length 0.728607   
     axis -1.16502e-014 90 90   XYZ
    dof rx rz
    limits (-90.0 90.0)
           (-45.0 45.0)
  end
  begin
     id 22 
     name lfingers
     direction 1 -4.48912e-011 3.64949e-026   
     length 0.587422   
     axis -2.33008e-014 90 90   XYZ
    dof rx
    limits (0.0 90.0)
  end
  begin
     id 23
     name lthumb
     direction 0.707107 -6.34995e-011 0.707107   
     length 0.843424   
     axis -90 45 5.69224e-014   XYZ
    dof rx rz
    limits (-45.0 45.0)
           (-45.0 45.0)
  end
  begin
     id 24 
     name rclavicle
     direction -0.90514 0.421881 -0.0523369   
     length 3.57139  
     axis 0 0 0   XYZ 
    dof ry rz
    limits (-10.0 20.0)
           (-20.0 0.0)
  end
  begin
     id 25 
     name rhumerus
     direction -1 -4.48954e-011 -1.76662e-027  
     length 5.48477   
     axis 180 30 90   XYZ
    dof rx ry rz
    limits (-90.0 60.0)
           (-90.0 90.0)
           (-90.0 90.0)
  end
  begin
     id 26 
     name rradius
     direction -1 -4.48982e-011 1.26841e-027   
     length 3.47856   
     axis 180 30 90   XYZ
    dof rx
    limits (-10.0 170.0)
  end
  begin
     id 27 
     name rwrist
     direction -1 -4.49037e-011 9.13554e-027   
     length 1.73928   
     axis -6.84618e-015 -90 -90   XYZ
    dof ry
    limits (-180.0 0.0)
  end
  begin
     id 28
     name rhand
     direction -1 -4.48871e-011 1.82397e-026   
     length 0.709974   
     axis -1.16502e-014 -90 -90   XYZ
    dof rx rz
    limits (-90.0 90.0)
           (-45.0 45.0)
  end
  begin
     id 29
     name rfingers
     direction -1 -4.48994e-011 3.65258e-026   
     length 0.572399   
     axis -2.33008e-014 -90 -90   XYZ
    dof rx
    limits (0.0 90.0)
  end
  begin
     id 30
     name rthumb
     direction -0.707107 -6.34861e-011 0.707107   
     length 0.821855   
     axis -90 -45 -5.69224e-014   XYZ
    dof rx rz
    limits (-45.0 45.0)
           (-45.0 45.0)
  end
:hierarchy
  begin
    root lhipjoint rhipjoint lowerback
    lhipjoint lfemur
    lfemur ltibia
    ltibia lfoot
    lfoot ltoes
    rhipjoint rfemur
    rfemur rtibia
    rtibia rfoot
    rfoot rtoes
    lowerback upperback
    upperback thorax
    thorax lowerneck lclavicle rclavicle
    lowerneck upperneck
    upperneck head
    lclavicle lhumerus
    lhumerus lradius
    lradius lwrist
    lwrist lhand lthumb
    lhand lfingers
    rclavicle rhumerus
    rhumerus rradius
    rradius rwrist
    rwrist rhand rthumb
    rhand rfingers
  end

#!OML:ASF F:\VICON\USERDATA\INSTALL\Justin1\Justin1.ASF
:FULLY-SPECIFIED
:DEGREES
1970
root 0.095031 18.1989 -3.76847 4.05297 2.91144 -3.71432
lowerback 1.00392 -0.995603 2.33652
upperback -2.13602 -1.18625 3.54122
thorax -2.73211 -0.600775 2.37399
lowerneck -11.758 -2.29184 -2.91166
upperneck 14.8269 -1.98493 -3.5758
head 6.44956 -1.41997 -0.843527
rclavicle -3.23584e-014 4.53229e-014
rhumerus -42.0782 -5.96521 -72.3638
rradius 29.4405
rwrist 1.36363
rhand -18.2324 19.5789
rfingers 7.12502
rthumb 8.04608 -10.248
lclavicle -3.23584e-014 4.53229e-014
lhumerus -46.7585 12.5719 79.7448
lradius 31.3251
lwrist -15.701
lhand -3.49381 25.0511
lfingers 7.12502
lthumb 22.24 53.7914
rfemur -15.5544 8.47914 27.8619
rtibia 32.8947
rfoot -18.2011 -13.2247
rtoes 30.1145
lfemur -14.2957 -10.1699 -18.1528
ltibia 29.9133
lfoot -17.7983 8.94589
ltoes 7.87212
1971
root 0.098524 18.1989 -3.76515 4.15524 2.84857 -3.64477
lowerback 0.873054 -0.98356 2.31829
upperback -2.16781 -1.17609 3.51305
thorax -2.69149 -0.595603 2.35241
lowerneck -11.7901 -2.27604 -2.89408
upperneck 14.9323 -1.96291 -3.5686
head 6.48873 -1.41005 -0.84379
rclavicle 2.10588e-014 -1.59028e-014
rhumerus -42.0935 -6.01674 -72.9135
rradius 29.5368
rwrist 1.47398
rhand -17.686 19.528
rfingers 7.12502
rthumb 8.57339 -10.2779
lclavicle 2.10588e-014 -1.59028e-014
lhumerus -46.7671 12.8124 80.1239
lradius 31.3937
lwrist -15.3391
lhand -3.69049 24.8687
lfingers 7.12502
lthumb 22.0511 53.6315
rfemur -15.6547 8.47352 27.7565
rtibia 32.9218
rfoot -18.2028 -13.1892
rtoes 29.9093
lfemur -14.3499 -10.1568 -18.2365
ltibia 29.8587
lfoot -17.739 9.04007
ltoes 7.46182
1972
root 0.103203 18.1995 -3.76366 4.23593 2.74553 -3.4936
lowerback 0.808515 -0.955712 2.21547
upperback -2.20939 -1.14365 3.46455
thorax -2.69748 -0.577846 2.35823
lowerneck -11.9164 -2.30199 -3.05945
upperneck 15.2311 -1.98601 -3.36267
head 6.61045 -1.42002 -0.758299
rclavicle 1.71483e-014 -6.36111e-015
rhumerus -42.1453 -6.11977 -73.3907
rradius 29.588
rwrist 1.64524
rhand -17.2628 19.6885
rfingers 7.12502
rthumb 8.98178 -10.1003
lclavicle 1.71483e-014 -6.36111e-015
lhumerus -46.7357 13.0925 80.4481
lradius 31.3702
lwrist -15.1922
lhand -3.73594 24.7917
lfingers 7.12502
lthumb 22.0075 53.5596
rfemur -15.7549 8.48257 27.5524
rtibia 32.9622
rfoot -18.1842 -13.098
rtoes 29.9368
lfemur -14.3792 -10.2284 -18.4276
ltibia 29.8099
lfoot -17.6777 9.20943
ltoes 7.57122
1973
root 0.106693 18.201 -3.76285 4.27317 2.63817 -3.44894
lowerback 0.773157 -0.917968 2.21219
upperback -2.22413 -1.09478 3.44521
thorax -2.69421 -0.553598 2.33808
lowerneck -12.0319 -2.35065 -3.27942
upperneck 15.491 -2.03932 -3.11329
head 6.7194 -1.44298 -0.651951
rclavicle -1.63997e-015 -2.3059e-014
rhumerus -42.1654 -6.24022 -73.8386
rradius 29.5906
rwrist 1.78072
rhand -16.986 20.1983
rfingers 7.12502
rthumb 9.24884 -9.57887
lclavicle -1.63997e-015 -2.3059e-014
lhumerus -46.6207 13.4937 80.6874
lradius 31.2185
lwrist -15.1245
lhand -3.66183 24.7083
lfingers 7.12502
lthumb 22.0787 53.4678
rfemur -15.8359 8.53881 27.4756
rtibia 33.0122
rfoot -18.1288 -13.0518
rtoes 29.81
lfemur -14.3733 -10.226 -18.4987
ltibia 29.7754
lfoot -17.6402 9.29345
ltoes 7.73434
1974
root 0.109715 18.2016 -3.76168 4.30169 2.52039 -3.51423
lowerback 0.738723 -0.86394 2.31124
upperback -2.23982 -1.02114 3.4543
thorax -2.69449 -0.518813 2.28929
lowerneck -12.0276 -2.39507 -3.28806
upperneck 15.5366 -2.09514 -3.12493
head 6.73338 -1.47221 -0.659947
rclavicle -9.71249e-015 -7.95139e-015
rhumerus -42.1469 -6.34268 -74.2812
rradius 29.4843
rwrist 1.87415
rhand -16.7765 20.6954
rfingers 7.12502
rthumb 9.45097 -9.07266
lclavicle -9.71249e-015 -7.95139e-015
lhumerus -46.6355 13.7996 80.9468
lradius 31.2629
lwrist -15.0435
lhand -3.5826 24.7673
lfingers 7.12502
lthumb 22.1547 53.5179
rfemur -15.92 8.63871 27.522
rtibia 33.0677
rfoot -18.0636 -13.078
rtoes 29.4714
lfemur -14.3811 -10.1217 -18.4476
ltibia 29.7574
lfoot -17.6435 9.36546
ltoes 7.43934
1975
root 0.112153 18.2001 -3.76147 4.29499 2.41993 -3.50966
lowerback 0.763712 -0.82195 2.35103
upperback -2.24183 -0.963311 3.43848
thorax -2.7129 -0.491004 2.24938
lowerneck -12.2018 -2.47954 -3.49362
upperneck 15.8015 -2.19357 -2.89844
head 6.85454 -1.51824 -0.568374
rclavicle 3.55017e-015 -1.03368e-014
rhumerus -42.0964 -6.47407 -74.7121
rradius 29.3729
rwrist 1.98713
rhand -16.6043 20.7628
rfingers 7.12502
rthumb 9.61716 -8.99768
lclavicle 3.55017e-015 -1.03368e-014
lhumerus -46.5829 14.0044 81.2602
lradius 31.2852
lwrist -15.0064
lhand -3.67026 25.0986
lfingers 7.12502
lthumb 22.0706 53.8591
rfemur -15.9532 8.64517 27.5059
rtibia 33.1208
rfoot -18.0262 -13.0794
rtoes 28.9762
lfemur -14.3708 -10.0616 -18.4696
ltibia 29.7623
lfoot -17.6639 9.37918
ltoes 7.54539
1976
root 0.11439 18.2008 -3.76306 4.29921 2.31333 -3.50773
lowerback 0.806911 -0.790735 2.37947
upperback -2.24734 -0.91886 3.43385
thorax -2.74446 -0.469556 2.22817
lowerneck -12.3531 -2.52155 -3.68672
upperneck 15.9913 -2.23568 -2.69564
head 6.94754 -1.53671 -0.47986
rclavicle -3.04296e-014 4.85035e-014
rhumerus -42.0105 -6.56394 -75.127
rradius 29.2313
rwrist 2.05744
rhand -16.4336 21.0026
rfingers 7.12502
rthumb 9.78182 -8.75025
lclavicle -3.04296e-014 4.85035e-014
lhumerus -46.3795 14.1803 81.582
lradius 31.0632
lwrist -14.9221
lhand -3.80253 25.1667
lfingers 7.12502
lthumb 21.9436 53.9422
rfemur -15.9813 8.67394 27.4989
rtibia 33.1643
rfoot -17.9554 -13.1105
rtoes 28.4065
lfemur -14.3847 -10.036 -18.49
ltibia 29.7839
lfoot -17.6681 9.44365
ltoes 7.72723
1977
root 0.118078 18.1998 -3.76412 4.30446 2.24437 -3.51339
lowerback 0.808898 -0.763091 2.45085
upperback -2.24291 -0.880871 3.41495
thorax -2.74324 -0.452336 2.1674
lowerneck -12.4327 -2.52147 -3.67053
upperneck 16.0687 -2.22862 -2.71689
head 6.98604 -1.53608 -0.490665
rclavicle -1.00262e-014 -1.27222e-014
rhumerus -41.9371 -6.7316 -75.4871
rradius 29.1203
rwrist 2.2034
rhand -16.0949 21.2268
rfingers 7.12502
rthumb 10.1086 -8.51043
lclavicle -1.00262e-014 -1.27222e-014
lhumerus -46.2193 14.3946 81.8217
lradius 30.8635
lwrist -14.8995
lhand -3.9253 24.9321
lfingers 7.12502
lthumb 21.8257 53.7213
rfemur -16.0013 8.67986 27.493
rtibia 33.1895
rfoot -17.8767 -13.153
rtoes 28.0041
lfemur -14.3984 -9.98525 -18.5047
ltibia 29.8203
lfoot -17.676 9.47858
ltoes 7.90581
1978
root 0.121746 18.1989 -3.76398 4.30076 2.15962 -3.4774
lowerback 0.822081 -0.739589 2.45511
upperback -2.25559 -0.848613 3.39932
thorax -2.76467 -0.436591 2.14826
lowerneck -12.416 -2.52343 -3.71417
upperneck 16.1642 -2.22397 -2.69971
head 7.015 -1.53666 -0.478351
rclavicle 1.03213e-014 2.78299e-014
rhumerus -41.9475 -6.81402 -75.8566
rradius 29.0917
rwrist 2.27887
rhand -15.8112 21.1018
rfingers 7.12502
rthumb 10.3823 -8.62192
lclavicle 1.03213e-014 2.78299e-014
lhumerus -46.1722 14.6105 82.0183
lradius 30.7545
lwrist -14.9728
lhand -3.95345 24.6946
lfingers 7.12502
lthumb 21.7987 53.4869
rfemur -16.0071 8.79806 27.4195
rtibia 33.2045
rfoot -17.9405 -13.1035
rtoes 28.5842
lfemur -14.405 -9.94856 -18.5697
ltibia 29.8641
lfoot -17.6953 9.55674
ltoes 7.73242
1979
root 0.123949 18.1968 -3.76525 4.28882 2.0765 -3.58309
lowerback 0.880037 -0.708467 2.59022
upperback -2.29016 -0.798953 3.42418
thorax -2.83581 -0.414729 2.0982
lowerneck -12.3509 -2.54126 -3.76027
upperneck 16.2588 -2.24014 -2.69951
head 7.03517 -1.54865 -0.472441
rclavicle -5.47279e-015 -6.36111e-015
rhumerus -41.9649 -6.89257 -76.1978
rradius 29.0015
rwrist 2.27578
rhand -15.7111 20.8277
rfingers 7.12502
rthumb 10.4788 -8.89111
lclavicle -5.47279e-015 -6.36111e-015
lhumerus -46.081 14.7447 82.2249
lradius 30.5147
lwrist -15.1581
lhand -4.09079 24.4129
lfingers 7.12502
lthumb 21.6668 53.2205
rfemur -16.0218 8.90904 27.5119
rtibia 33.2125
rfoot -17.9586 -13.0848
rtoes 28.7133
lfemur -14.4214 -9.93456 -18.4677
ltibia 29.9161
lfoot -17.7546 9.64055
ltoes 7.65559
1980
root 0.125594 18.1953 -3.76832 4.32609 1.98759 -3.59632
lowerback 0.937595 -0.680034 2.61973
upperback -2.33834 -0.755299 3.42405
thorax -2.91928 -0.393987 2.08177
lowerneck -12.3833 -2.55308 -3.78918
upperneck 16.3707 -2.24845 -2.68469
head 7.07787 -1.55539 -0.46544
rclavicle -1.54679e-014 -7.15625e-015
rhumerus -41.9746 -7.072 -76.4875
rradius 28.9299
rwrist 2.36619
rhand -15.7864 20.6139
rfingers 7.12502
rthumb 10.4062 -9.10858
lclavicle -1.54679e-014 -7.15625e-015
lhumerus -45.977 14.8251 82.4667
lradius 30.3174
lwrist -15.3208
lhand -4.4595 24.1948
lfingers 7.12502
lthumb 21.3126 53.0429
rfemur -16.0953 8.97495 27.5064
rtibia 33.2166
rfoot -17.8971 -13.06
rtoes 28.6784
lfemur -14.503 -9.84603 -18.4533
ltibia 29.9712
lfoot -17.7658 9.59978
ltoes 7.67687
1981
root 0.128769 18.1947 -3.7681 4.36451 1.85962 -3.54621
lowerback 0.92698 -0.642395 2.597
upperback -2.37069 -0.705214 3.40581
thorax -2.94743 -0.368871 2.07423
lowerneck -12.3305 -2.55365 -3.74207
upperneck 16.3503 -2.24759 -2.76472
head 7.06047 -1.55856 -0.497943
rclavicle -5.34234e-016 3.02153e-014
rhumerus -42.0074 -7.16308 -76.7895
rradius 28.8974
rwrist 2.49061
rhand -16.1081 20.6512
rfingers 7.12502
rthumb 10.0959 -9.08656
lclavicle -5.34234e-016 3.02153e-014
lhumerus -45.9282 14.831 82.7532
lradius 30.3099
lwrist -15.3202
lhand -4.6927 24.443
lfingers 7.12502
lthumb 21.0886 53.3162
rfemur -16.1584 9.02105 27.4225
rtibia 33.2323
rfoot -17.9117 -12.9232
rtoes 28.8156
lfemur -14.5536 -9.72546 -18.5251
ltibia 30.0196
lfoot -17.7929 9.51753
ltoes 7.92596
